# xmcd CD database file
#
# Track frame offsets:
#	150
#	19877
#	21190
#	36012
#	50702
#	66267
#	83700
#	103732
#	115765
#	130977
#	143270
#	167957
#	184907
#	200127
#
# Disc length: 2843 seconds
#
# Revision: 3
# Processed by: cddbd v1.4PL0 Copyright (c) Steve Scherf et al.
# Submitted via: CDex 1.50Beta7
#
DISCID=c60b190e
DTITLE=Gary Primich - Travellin' Mood
DYEAR=1994
DGENRE=Blues
TTITLE0=House Rockin' Party
TTITLE1=intro
TTITLE2=Ding Dong Daddy
TTITLE3=Shake the Boogie
TTITLE4=Beer Drinkin' Woman
TTITLE5=Triple Trouble
TTITLE6=Wild Cat Tamer
TTITLE7=Caravan
TTITLE8=Travelin' Mood
TTITLE9=She Was A Dreamer
TTITLE10=School of Hard Knocks
TTITLE11=Put the Hammer Down
TTITLE12=The Poodle Bites
TTITLE13=Knock Me A Kiss
EXTD=YEAR: 1994
EXTT0=
EXTT1=
EXTT2=
EXTT3=
EXTT4=
EXTT5=
EXTT6=
EXTT7=
EXTT8=
EXTT9=
EXTT10=
EXTT11=
EXTT12=
EXTT13=
PLAYORDER=
